<?xml version="1.0" standalone="no"?>
<!DOCTYPE svg PUBLIC "-//W3C//DTD SVG 20010904//EN"
 "http://www.w3.org/TR/2001/REC-SVG-20010904/DTD/svg10.dtd">
<svg version="1.0" xmlns="http://www.w3.org/2000/svg"
 width="740.000000pt" height="348.000000pt" viewBox="0 0 740.000000 348.000000"
 preserveAspectRatio="xMidYMid meet">

<g transform="translate(0.000000,348.000000) scale(0.100000,-0.100000)"
fill="#000000" stroke="none">
<path d="M780 2605 l0 -115 970 0 970 0 0 115 0 115 -970 0 -970 0 0 -115z"/>
<path d="M3580 2460 c0 -27 3 -30 30 -30 27 0 30 3 30 30 0 27 -3 30 -30 30
-27 0 -30 -3 -30 -30z"/>
<path d="M4570 2460 c0 -27 3 -30 30 -30 27 0 30 3 30 30 0 27 -3 30 -30 30
-27 0 -30 -3 -30 -30z"/>
<path d="M3020 2366 c0 -127 7 -157 44 -181 30 -20 103 -23 144 -6 43 18 52
48 52 181 l0 120 -30 0 -30 0 0 -114 c0 -130 -9 -149 -64 -144 -45 4 -56 35
-56 156 l0 102 -30 0 -30 0 0 -114z"/>
<path d="M4700 2430 c0 -20 -5 -30 -15 -30 -9 0 -15 -9 -15 -25 0 -16 6 -25
15 -25 12 0 15 -15 15 -73 0 -81 11 -105 50 -108 57 -5 70 0 70 25 0 19 -6 25
-27 28 -27 3 -28 6 -31 66 l-3 62 31 0 c25 0 30 4 30 25 0 21 -5 25 -30 25
-27 0 -30 3 -30 30 0 27 -3 30 -30 30 -27 0 -30 -3 -30 -30z"/>
<path d="M5110 2430 c0 -20 -5 -30 -15 -30 -9 0 -15 -9 -15 -25 0 -16 6 -25
15 -25 12 0 15 -15 15 -72 0 -82 5 -93 41 -106 40 -16 79 -4 79 24 0 17 -6 23
-27 26 -27 3 -28 6 -31 66 l-3 62 31 0 c25 0 30 4 30 25 0 21 -5 25 -30 25
-27 0 -30 3 -30 30 0 27 -3 30 -30 30 -27 0 -30 -3 -30 -30z"/>
<path d="M3320 2284 l0 -114 30 0 30 0 0 85 c0 82 1 85 25 91 49 12 55 2 55
-91 l0 -85 30 0 30 0 0 95 c0 126 -7 134 -119 133 l-81 0 0 -114z"/>
<path d="M3580 2285 l0 -115 30 0 30 0 0 115 0 115 -30 0 -30 0 0 -115z"/>
<path d="M3685 2378 c3 -13 16 -63 29 -113 l22 -90 54 0 54 0 22 90 c13 50 26
100 29 113 5 21 3 23 -27 20 -33 -3 -33 -3 -52 -90 -10 -49 -22 -88 -26 -88
-5 0 -16 41 -26 90 l-18 90 -33 0 c-30 0 -33 -3 -28 -22z"/>
<path d="M3955 2376 c-31 -31 -42 -104 -23 -154 17 -46 62 -64 134 -54 40 6
50 11 52 29 3 20 -1 22 -60 25 -50 2 -63 6 -66 21 -3 15 5 17 61 17 57 0 65 3
70 20 8 31 -11 88 -36 105 -34 24 -103 20 -132 -9z m103 -53 c3 -20 -1 -23
-31 -23 -41 0 -49 7 -36 32 15 28 63 21 67 -9z"/>
<path d="M4170 2285 l0 -115 30 0 29 0 3 77 3 77 38 9 c33 8 37 13 37 39 0 32
3 32 -62 11 -10 -3 -18 0 -18 6 0 6 -13 11 -30 11 l-30 0 0 -115z"/>
<path d="M4362 2384 c-19 -13 -23 -23 -20 -57 3 -44 15 -54 83 -74 46 -13 32
-28 -30 -31 -50 -3 -55 -5 -55 -26 0 -20 6 -24 47 -29 92 -10 146 29 130 95
-7 25 -32 40 -90 53 -47 10 -26 30 32 30 50 -1 52 0 49 25 -3 23 -7 25 -63 28
-43 2 -67 -2 -83 -14z"/>
<path d="M4570 2285 l0 -115 30 0 30 0 0 115 0 115 -30 0 -30 0 0 -115z"/>
<path d="M4873 2393 c-7 -2 -13 -13 -13 -24 0 -16 7 -19 54 -19 49 0 66 -9 66
-35 0 -1 -22 -5 -50 -7 -63 -6 -80 -21 -80 -67 0 -62 39 -89 103 -70 18 5 44
5 64 0 l33 -9 -6 76 c-8 117 -13 141 -34 152 -19 10 -115 13 -137 3z m107
-147 c0 -17 -7 -26 -25 -30 -32 -8 -45 -1 -45 24 0 20 13 28 48 29 17 1 22 -5
22 -23z"/>
<path d="M5298 2383 c-43 -49 -51 -127 -19 -179 22 -35 59 -45 131 -35 37 5
46 10 48 29 3 21 0 22 -55 22 -54 0 -83 11 -83 32 0 4 32 8 70 8 l70 0 0 45
c0 65 -31 95 -98 95 -34 0 -54 -5 -64 -17z m100 -60 c3 -21 -1 -23 -37 -23
-41 0 -46 5 -35 35 10 26 68 16 72 -12z"/>
<path d="M5523 2393 c-7 -2 -13 -13 -13 -24 0 -16 7 -19 54 -19 37 0 56 -4 59
-14 8 -20 -1 -26 -37 -26 -70 0 -106 -48 -81 -107 15 -34 50 -46 99 -32 17 5
44 5 63 0 l33 -9 -6 76 c-8 117 -13 141 -34 152 -19 10 -115 13 -137 3z m107
-147 c0 -17 -7 -26 -25 -30 -32 -8 -45 -1 -45 24 0 20 13 28 48 29 17 1 22 -5
22 -23z"/>
<path d="M780 2260 l0 -110 970 0 970 0 0 110 0 110 -970 0 -970 0 0 -110z"/>
<path d="M780 1400 l0 -631 113 3 112 3 3 628 2 627 -115 0 -115 0 0 -630z"/>
<path d="M1120 1400 l0 -631 113 3 112 3 3 628 2 627 -115 0 -115 0 0 -630z"/>
<path d="M1460 1745 l0 -285 285 0 285 0 0 285 0 285 -285 0 -285 0 0 -285z
m380 0 l0 -96 -92 3 -93 3 -3 93 -3 92 96 0 95 0 0 -95z"/>
<path d="M2150 1400 l0 -631 113 3 112 3 3 628 2 627 -115 0 -115 0 0 -630z"/>
<path d="M2490 1400 l0 -630 115 0 115 0 0 630 0 630 -115 0 -115 0 0 -630z"/>
<path d="M4140 1990 c0 -27 3 -30 30 -30 27 0 30 3 30 30 0 27 -3 30 -30 30
-27 0 -30 -3 -30 -30z"/>
<path d="M4260 1860 l0 -160 30 0 30 0 0 160 0 160 -30 0 -30 0 0 -160z"/>
<path d="M5110 1990 c0 -27 3 -30 30 -30 27 0 30 3 30 30 0 27 -3 30 -30 30
-27 0 -30 -3 -30 -30z"/>
<path d="M2992 1983 c3 -25 7 -28 46 -31 l42 -3 0 -125 0 -124 30 0 30 0 0
124 0 125 43 3 c38 3 42 6 45 31 l3 27 -121 0 -121 0 3 -27z"/>
<path d="M3240 1815 l0 -115 30 0 29 0 3 77 3 77 38 9 c33 8 37 13 37 39 0 32
3 32 -62 11 -10 -3 -18 0 -18 6 0 6 -13 11 -30 11 l-30 0 0 -115z"/>
<path d="M3428 1923 c-10 -2 -18 -13 -18 -23 0 -16 9 -19 57 -22 44 -2 59 -7
61 -19 2 -12 -8 -18 -44 -23 -59 -8 -84 -29 -84 -72 0 -56 51 -86 111 -65 21
7 37 7 49 1 32 -17 50 -12 50 14 0 14 -4 28 -10 31 -5 3 -10 39 -10 80 0 65
-3 76 -22 89 -21 15 -99 20 -140 9z m102 -148 c0 -18 -7 -26 -24 -31 -43 -11
-65 24 -28 45 31 19 52 13 52 -14z"/>
<path d="M3655 1922 c-3 -3 -5 -54 -5 -114 l0 -108 35 0 35 0 0 84 c0 89 9
104 51 91 17 -6 19 -17 19 -91 l0 -84 35 0 35 0 0 63 c-1 78 -14 138 -35 154
-16 11 -159 16 -170 5z"/>
<path d="M3925 1905 c-49 -48 -27 -99 50 -119 28 -7 49 -17 48 -22 -2 -5 -28
-10 -58 -12 -50 -3 -55 -5 -55 -27 0 -21 6 -24 54 -30 39 -5 61 -3 84 9 61 32
48 117 -20 131 -66 13 -70 15 -57 32 10 11 24 13 61 8 46 -7 48 -6 48 18 0 28
-20 37 -88 37 -32 0 -49 -6 -67 -25z"/>
<path d="M4140 1816 l0 -116 30 0 31 0 -3 113 -3 112 -27 3 -28 3 0 -115z"/>
<path d="M4362 1918 c3 -7 16 -59 29 -116 l24 -103 54 3 55 3 22 90 c13 50 26
100 29 113 5 21 3 23 -27 20 -35 -3 -34 -3 -58 -120 -6 -32 -15 -58 -19 -58
-4 0 -17 39 -27 88 l-19 87 -34 3 c-25 3 -32 0 -29 -10z"/>
<path d="M4628 1923 c-10 -2 -18 -13 -18 -23 0 -16 9 -19 57 -22 44 -2 59 -7
61 -19 2 -12 -8 -18 -44 -23 -59 -8 -84 -29 -84 -71 0 -62 24 -74 130 -65 14
1 37 -2 53 -5 24 -7 27 -5 27 18 0 14 -4 29 -10 32 -5 3 -10 37 -10 76 0 90
-17 110 -92 108 -29 -1 -61 -3 -70 -6z m102 -148 c0 -18 -7 -26 -24 -31 -43
-11 -65 24 -28 45 31 19 52 13 52 -14z"/>
<path d="M4855 1922 c-3 -3 -5 -54 -5 -114 l0 -108 35 0 35 0 0 84 c0 89 9
104 51 91 17 -6 19 -17 19 -91 l0 -84 35 0 35 0 0 58 c-1 80 -15 144 -35 158
-16 12 -159 17 -170 6z"/>
<path d="M5110 1815 l0 -115 30 0 30 0 0 115 0 115 -30 0 -30 0 0 -115z"/>
<path d="M5248 1923 c-10 -2 -18 -13 -18 -23 0 -16 9 -19 57 -22 44 -2 59 -7
61 -19 2 -12 -8 -18 -44 -23 -59 -8 -84 -29 -84 -71 0 -62 24 -74 130 -65 14
1 37 -2 53 -5 24 -7 27 -5 27 18 0 14 -4 29 -10 32 -5 3 -10 37 -10 76 0 90
-17 110 -92 108 -29 -1 -61 -3 -70 -6z m102 -148 c0 -18 -7 -26 -24 -31 -43
-11 -65 24 -28 45 31 19 52 13 52 -14z"/>
<path d="M3157 1544 c-4 -4 -7 -25 -7 -46 0 -37 -1 -38 -35 -38 -80 0 -110
-41 -103 -141 6 -86 24 -99 126 -96 l77 2 0 160 0 160 -25 3 c-14 2 -29 0 -33
-4z m-9 -201 c2 -36 -1 -63 -7 -63 -5 0 -16 -3 -24 -6 -24 -9 -47 24 -47 66 0
44 22 73 54 68 18 -3 21 -11 24 -65z"/>
<path d="M3280 1520 c0 -27 3 -30 30 -30 27 0 30 3 30 30 0 27 -3 30 -30 30
-27 0 -30 -3 -30 -30z"/>
<path d="M3764 1527 c-2 -7 -3 -78 -2 -157 l3 -145 83 1 c105 1 135 19 140 84
2 28 -2 48 -13 60 -15 17 -15 20 1 45 25 39 6 99 -38 114 -45 16 -167 14 -174
-2z m151 -82 c0 -28 -3 -30 -42 -33 l-43 -3 0 36 0 36 43 -3 c39 -3 42 -5 42
-33z m0 -98 c13 -10 16 -21 11 -40 -6 -24 -11 -27 -51 -27 l-45 0 0 40 c0 39
1 40 33 40 18 0 41 -6 52 -13z"/>
<path d="M3448 1453 l-48 -4 0 -115 0 -115 28 3 c27 3 27 3 30 89 2 78 5 87
23 92 48 13 59 -10 59 -116 l0 -68 28 3 c26 3 27 5 30 68 6 118 -18 172 -75
168 -16 -1 -49 -3 -75 -5z"/>
<path d="M4138 1444 c-16 -8 -28 -10 -28 -4 0 5 -16 10 -35 10 l-36 0 3 -112
3 -113 30 0 30 0 5 79 5 80 33 8 c27 7 32 13 32 38 0 34 -4 35 -42 14z"/>
<path d="M4243 1453 c-15 -3 -23 -12 -23 -24 0 -16 7 -19 48 -19 43 0 72 -12
72 -31 0 -4 -22 -10 -49 -14 -65 -9 -83 -23 -84 -68 -2 -62 20 -75 119 -74
l84 2 -6 70 c-8 112 -14 134 -37 150 -20 14 -74 18 -124 8z m95 -159 c-2 -13
-13 -20 -36 -22 -28 -3 -32 0 -32 22 0 19 6 25 28 28 33 4 45 -4 40 -28z"/>
<path d="M4476 1439 c-19 -15 -26 -30 -26 -53 0 -40 22 -62 73 -71 37 -7 55
-21 43 -33 -4 -3 -31 -5 -61 -4 -52 2 -55 1 -55 -22 0 -18 7 -25 31 -30 67
-13 121 -2 141 28 14 20 8 73 -9 89 -10 8 -35 18 -56 22 -36 7 -55 21 -43 32
3 3 31 5 61 4 52 -1 55 0 55 22 0 20 -6 25 -37 31 -64 10 -89 7 -117 -15z"/>
<path d="M4723 1450 c-79 -32 -66 -207 17 -225 84 -18 140 27 140 113 0 96
-71 147 -157 112z m81 -56 c33 -33 12 -124 -29 -124 -25 0 -45 31 -45 70 0 39
20 70 45 70 7 0 21 -7 29 -16z"/>
<path d="M3280 1334 l0 -115 28 3 27 3 3 113 3 112 -31 0 -30 0 0 -116z"/>
<path d="M4910 1440 c0 -6 12 -58 26 -116 l27 -105 51 3 51 3 22 84 c39 149
39 141 4 141 -26 0 -31 -5 -40 -37 -6 -21 -11 -42 -11 -48 0 -22 -21 -85 -29
-85 -4 0 -14 33 -21 73 -7 39 -15 78 -17 85 -6 14 -63 16 -63 2z"/>
<path d="M1465 1337 c-3 -7 -4 -136 -3 -287 l3 -275 113 -3 112 -3 0 291 0
290 -110 0 c-80 0 -112 -4 -115 -13z"/>
<path d="M1810 1060 l0 -290 110 0 110 0 0 290 0 290 -110 0 -110 0 0 -290z"/>
<path d="M4506 1178 c-3 -7 -7 -32 -10 -55 -6 -41 -5 -43 18 -43 21 0 27 7 36
43 6 23 13 48 15 55 3 8 -6 12 -26 12 -16 0 -31 -6 -33 -12z"/>
</g>
</svg>
