<?xml version="1.0" encoding="utf-8"?>
<svg xmlns="http://www.w3.org/2000/svg" viewBox="0 0 500 500">
  <path style="stroke: rgb(0, 0, 0);" d="M 155.846 149.206 L 150.374 149.206 L 54.851 291.237 L 77.877 285.994 L 140.343 192.294 L 139.887 233.102 L 156.302 232.875 L 155.846 149.206 Z"/>
  <path style="stroke: rgb(0, 0, 0);" d="M 103.41 253.165 L 113.214 238.574 L 156.302 238.574 L 156.302 263.424 L 140.343 263.88 L 140.343 253.165 L 103.41 253.165 Z"/>
  <path style="stroke: rgb(0, 0, 0);" d="M 163.141 194.802 L 177.504 194.802 L 177.732 263.652 L 163.141 263.424 L 163.141 194.802 Z"/>
  <path style="stroke: rgb(0, 0, 0);" d="M 162.998 191.499 L 162.054 181.355 L 179.561 174.196 L 178.188 191.61 L 162.998 191.499 Z"/>
  <path style="stroke: rgb(0, 0, 0);" d="M 225.559 210.531 L 237.742 195.918 C 157.627 178.383 171.072 287.272 235.556 259.877 C 229.809 252.434 225.72 247.759 225.72 247.759 C 186.821 259.241 187.505 199.318 225.559 210.531 Z"/>
  <ellipse style="stroke: rgb(0, 0, 0);" cx="264.783" cy="244.507" rx="19.834" ry="20.518"/>
  <ellipse style="stroke: rgb(0, 0, 0); fill: rgb(255, 255, 255);" cx="265.047" cy="244.505" rx="11.171" ry="11.399"/>
  <rect x="302.436" y="215.219" width="14.363" height="48.56" style="stroke: rgb(0, 0, 0);"/>
  <path style="stroke: rgb(0, 0, 0);" d="M 406.08 209.466 L 419.737 194.035 L 375.865 194.736 C 353.88 198.787 353.665 233.637 373.719 236.364 L 394.018 236.248 C 402.03 237.479 399.957 248.545 394.195 249.019 L 366.606 249.116 L 354.643 263.563 L 397.921 263.031 C 417.594 256.369 418.85 230.542 400.057 221.953 L 380.184 221.97 C 371.299 221.95 372.056 209.838 380.183 209.643 L 406.08 209.466 Z"/>
  <path style="stroke: rgb(0, 0, 0);" d="M 302.064 194.315 L 301.879 209.621 L 335.442 209.529 C 342.548 212.772 341.91 223.652 335.442 226.495 L 316.816 226.587 L 347.428 280.086 L 373.798 291.15 L 340.697 238.686 C 361.657 230.317 358.253 203.6 340.974 194.111 L 302.064 194.315 Z"/>
</svg>