<?xml version="1.0" standalone="no"?>
<!DOCTYPE svg PUBLIC "-//W3C//DTD SVG 20010904//EN"
 "http://www.w3.org/TR/2001/REC-SVG-20010904/DTD/svg10.dtd">
<svg version="1.0" xmlns="http://www.w3.org/2000/svg"
 width="300.000000pt" height="250.000000pt" viewBox="0 0 300.000000 250.000000"
 preserveAspectRatio="xMidYMid meet">

<g transform="translate(0.000000,250.000000) scale(0.100000,-0.100000)"
fill="#000000" stroke="none">
<path d="M630 1790 l0 -40 431 0 430 0 -3 38 -3 37 -427 3 -428 2 0 -40z"/>
<path d="M1630 1471 l0 -360 -47 -3 c-35 -2 -48 -7 -48 -18 0 -11 13 -16 48
-18 38 -3 47 -7 47 -22 0 -15 -9 -19 -47 -22 -35 -2 -48 -7 -48 -18 0 -10 14
-17 45 -20 32 -4 46 -10 48 -22 3 -14 -6 -17 -45 -20 -35 -2 -48 -7 -48 -18 0
-10 14 -17 45 -20 45 -5 45 -5 48 -48 3 -43 3 -43 40 -40 l37 3 3 503 2 502
-40 0 -40 0 0 -359z"/>
<path d="M1770 1823 c0 -13 344 -853 349 -853 6 0 341 839 341 853 0 4 -17 7
-38 7 l-38 0 -74 -192 c-152 -400 -192 -500 -200 -491 -4 4 -62 152 -130 328
-67 176 -126 328 -131 338 -7 11 -22 17 -44 17 -19 0 -35 -3 -35 -7z"/>
<path d="M2522 1328 l3 -503 37 -3 c37 -3 37 -3 40 40 l3 43 93 3 c84 2 92 4
92 22 0 18 -7 20 -95 20 -88 0 -95 1 -95 20 0 19 7 20 95 20 88 0 95 1 95 20
0 19 -7 20 -95 20 -88 0 -95 1 -95 20 0 19 7 20 95 20 88 0 95 1 95 20 0 19
-7 20 -95 20 l-95 0 0 360 0 360 -40 0 -40 0 2 -502z"/>
<path d="M1750 1282 l0 -462 40 0 40 0 0 45 0 45 86 0 85 0 20 -45 20 -45 74
0 73 0 18 45 17 45 88 0 88 0 3 -42 c3 -42 4 -43 41 -46 l37 -3 0 463 0 463
-173 -430 c-114 -286 -177 -431 -188 -433 -11 -2 -56 99 -188 425 -96 235
-175 430 -177 432 -2 2 -4 -203 -4 -457z m169 -159 c1 -9 -14 -13 -44 -13
l-45 0 1 123 0 122 44 -110 c24 -60 44 -116 44 -122z m481 107 l0 -120 -45 0
c-27 0 -45 5 -45 12 0 12 82 228 87 228 2 0 3 -54 3 -120z m-450 -180 c10 -19
8 -20 -55 -20 -58 0 -65 2 -65 20 0 18 7 20 55 20 44 0 56 -4 65 -20z m450 0
c0 -18 -7 -20 -64 -20 -59 0 -64 2 -59 20 5 17 14 20 64 20 52 0 59 -2 59 -20z
m-420 -80 c10 -19 8 -20 -70 -20 -73 0 -80 2 -80 20 0 18 7 20 70 20 59 0 71
-3 80 -20z m420 0 c0 -18 -7 -20 -79 -20 -74 0 -79 1 -74 20 5 18 14 20 79 20
67 0 74 -2 74 -20z"/>
<path d="M632 1668 l3 -43 158 -3 157 -3 0 -254 0 -255 -35 0 c-28 0 -35 -4
-35 -20 0 -16 7 -20 35 -20 28 0 35 -4 35 -20 0 -16 -7 -20 -35 -20 -28 0 -35
-4 -35 -20 0 -16 7 -20 35 -20 28 0 35 -4 35 -20 0 -16 -7 -20 -35 -20 -28 0
-35 -4 -35 -19 0 -15 8 -21 33 -23 29 -3 32 -6 35 -40 3 -38 4 -38 48 -38 l44
0 0 440 0 440 -206 0 -205 0 3 -42z"/>
<path d="M1080 1270 l0 -440 44 0 c44 0 45 0 48 38 3 34 6 37 36 40 24 2 32 8
32 23 0 15 -7 19 -35 19 -28 0 -35 4 -35 20 0 16 7 20 35 20 28 0 35 4 35 20
0 16 -7 20 -35 20 -28 0 -35 4 -35 20 0 16 7 20 35 20 28 0 35 4 35 20 0 16
-7 20 -35 20 l-35 0 0 255 0 254 158 3 157 3 3 43 3 42 -205 0 -206 0 0 -440z"/>
<path d="M443 1535 c-117 -26 -221 -104 -273 -206 l-22 -43 22 -18 c12 -10 27
-18 34 -17 6 0 30 27 53 59 51 72 131 128 210 146 59 14 248 19 277 8 14 -5
16 -44 16 -334 0 -354 1 -364 56 -429 61 -73 167 -105 299 -90 40 4 90 15 111
24 40 17 97 65 117 100 8 14 14 130 17 370 l5 350 108 3 107 3 0 44 0 45 -149
0 -150 0 -3 -367 c-3 -339 -4 -371 -22 -407 -29 -57 -77 -76 -196 -76 -114 0
-169 20 -197 72 -16 30 -18 68 -21 406 l-3 372 -167 -1 c-100 0 -192 -6 -229
-14z"/>
<path d="M2000 1536 c0 -2 7 -20 15 -40 l16 -37 86 3 86 3 13 38 13 37 -115 0
c-62 0 -114 -2 -114 -4z"/>
<path d="M2636 1524 c-3 -9 -6 -27 -6 -40 0 -23 2 -24 84 -24 79 0 84 1 88 23
9 52 2 57 -82 57 -62 0 -79 -3 -84 -16z"/>
<path d="M449 1406 c-77 -27 -150 -91 -188 -163 -10 -21 -8 -25 21 -43 l33
-20 15 22 c60 89 114 122 222 133 l66 7 4 -293 c4 -281 5 -297 27 -352 66
-160 201 -225 448 -215 180 8 283 56 342 160 52 90 61 157 61 442 l0 256 40 0
40 0 0 40 0 40 -90 0 -90 0 0 -327 c0 -326 0 -328 -24 -380 -46 -98 -150 -147
-316 -148 -160 0 -258 53 -317 173 l-28 57 -3 313 -3 312 -112 0 c-65 -1 -127
-6 -148 -14z"/>
<path d="M2056 1398 c21 -68 35 -88 59 -88 19 0 28 8 39 33 33 80 35 77 -39
77 -63 0 -66 -1 -59 -22z"/>
<path d="M2637 1414 c-9 -9 -9 -67 -1 -88 5 -13 22 -16 85 -16 87 0 91 4 86
75 l-3 30 -80 3 c-44 1 -83 0 -87 -4z"/>
<path d="M340 1090 c0 -19 7 -20 115 -20 108 0 115 1 115 20 0 19 -7 20 -115
20 -108 0 -115 -1 -115 -20z"/>
<path d="M340 1010 c0 -19 7 -20 115 -20 108 0 115 1 115 20 0 19 -7 20 -115
20 -108 0 -115 -1 -115 -20z"/>
<path d="M340 930 c0 -19 7 -20 115 -20 108 0 115 1 115 20 0 19 -7 20 -115
20 -108 0 -115 -1 -115 -20z"/>
</g>
</svg>
